<?xml version="1.0" encoding="UTF-8"?>
<svg id="Layer_1" data-name="Layer 1" xmlns="http://www.w3.org/2000/svg" viewBox="0 0 300 300">
  <defs>
    <style>
      .cls-1 {
        fill: #975be5;
      }

      .cls-1, .cls-2 {
        fill-rule: evenodd;
      }

      .cls-3 {
        fill: #dfcdf7;
      }

      .cls-2 {
        fill: #3f3d56;
      }
    </style>
  </defs>
  <circle class="cls-3" cx="124.83" cy="171.03" r="101.86"/>
  <g>
    <path class="cls-2" d="M227.03,139.61c-27.61,0-50,22.39-50,50s22.39,50,50,50,50-22.39,50-50-22.39-50-50-50h0Z"/>
    <path class="cls-2" d="M97.12,139.61c-27.61,0-50,22.38-50,50s22.39,50,50,50,50-22.39,50-50-22.39-50-50-50h0Z"/>
    <path class="cls-1" d="M212.08,77.1c0,27.62-22.39,50-50,50s-50-22.39-50-50,22.39-50,50-50,50,22.39,50,50h0Z"/>
  </g>
</svg>